<?xml version="1.0" encoding="utf-8"?>
<!-- Generator: Adobe Illustrator 24.0.0, SVG Export Plug-In . SVG Version: 6.00 Build 0)  -->
<svg version="1.1" id="Capa_1" xmlns="http://www.w3.org/2000/svg" xmlns:xlink="http://www.w3.org/1999/xlink" x="0px" y="0px"
	 viewBox="0 0 260.5 152.8" style="enable-background:new 0 0 260.5 152.8;" xml:space="preserve">
<style type="text/css">
	.st0{fill-rule:evenodd;clip-rule:evenodd;fill:#F7C0CD;stroke:#333333;stroke-width:1;stroke-miterlimit:10.0002;}
	.st1{fill:#333333;}
	.st2{fill:#FFFFFF;stroke:#333333;stroke-width:1.5;stroke-miterlimit:10;}
	.st3{fill:#FFFFFF;}
	.st4{fill:none;stroke:#333333;stroke-miterlimit:10;}
</style>
<g>
	<g>
		<g>
			
				<rect x="82.7" y="-20.3" transform="matrix(6.310308e-03 -1 1 6.310308e-03 59.8655 222.5672)" class="st0" width="118.3" height="202.9"/>
			<g>
				<g>
					<path class="st1" d="M138.9,99.6c-2.6,0-3.9-1.4-5.1-2.6c-1.1-1.1-2-2.1-3.9-2.1c-1.9,0-2.9,0.9-4,2c-1.2,1.2-2.5,2.5-5.1,2.5
						s-3.9-1.4-5.1-2.6c-1.1-1.1-2-2.1-3.9-2.1c-1.9,0-2.9,0.9-4,2c-1.2,1.2-2.5,2.5-5.1,2.5s-3.9-1.4-5.1-2.6
						c-1.1-1.1-2-2.1-3.9-2.1l0-1.6c2.6,0,3.9,1.4,5.1,2.6c1.1,1.1,2,2.1,3.9,2.1c1.9,0,2.9-0.9,4-2c1.2-1.2,2.5-2.5,5.1-2.5
						s3.9,1.4,5.1,2.6c1.1,1.1,2,2.1,3.9,2.1c1.9,0,2.9-0.9,4-2c1.2-1.2,2.5-2.5,5.1-2.5c2.6,0,3.9,1.4,5.1,2.6
						c1.1,1.1,2,2.1,3.9,2.1L138.9,99.6z"/>
					<path class="st1" d="M138.8,106.9c-2.6,0-3.9-1.4-5.1-2.6c-1.1-1.1-2-2.1-3.9-2.1c-1.9,0-2.9,0.9-4,2c-1.2,1.2-2.5,2.5-5.1,2.5
						s-3.9-1.4-5.1-2.6c-1.1-1.1-2-2.1-3.9-2.1c-1.9,0-2.9,0.9-4,2c-1.2,1.2-2.5,2.5-5.1,2.5s-3.9-1.4-5.1-2.6
						c-1.1-1.1-2-2.1-3.9-2.1l0-1.6c2.6,0,3.9,1.4,5.1,2.6c1.1,1.1,2,2.1,3.9,2.1c1.9,0,2.9-0.9,4-2c1.2-1.2,2.5-2.5,5.1-2.5
						s3.9,1.4,5.1,2.6c1.1,1.1,2,2.1,3.9,2.1c1.9,0,2.9-0.9,4-2c1.2-1.2,2.5-2.5,5.1-2.5c2.6,0,3.9,1.4,5.1,2.6
						c1.1,1.1,2,2.1,3.9,2.1L138.8,106.9z"/>
					<path class="st1" d="M138.9,92.2c-2.6,0-3.9-1.4-5.1-2.6c-1.1-1.1-2-2.1-3.9-2.1c-1.9,0-2.9,0.9-4,2c-1.2,1.2-2.5,2.5-5.1,2.5
						s-3.9-1.4-5.1-2.6c-1.1-1.1-2-2.1-3.9-2.1c-1.9,0-2.9,0.9-4,2c-1.2,1.2-2.5,2.5-5.1,2.5s-3.9-1.4-5.1-2.6
						c-1.1-1.1-2-2.1-3.9-2.1l0-1.6c2.6,0,3.9,1.4,5.1,2.6c1.1,1.1,2,2.1,3.9,2.1c1.9,0,2.9-0.9,4-2c1.2-1.2,2.5-2.5,5.1-2.5
						s3.9,1.4,5.1,2.6c1.1,1.1,2,2.1,3.9,2.1c1.9,0,2.9-0.9,4-2c1.2-1.2,2.5-2.5,5.1-2.5c2.6,0,3.9,1.4,5.1,2.6
						c1.1,1.1,2,2.1,3.9,2.1L138.9,92.2z"/>
					<path class="st1" d="M75.7,68.1l0,6l5.4,0c1,0,1.7-0.1,2.3-0.4c1-0.5,1.5-1.4,1.5-2.8c0-1.2-0.5-2-1.4-2.4
						c-0.5-0.2-1.3-0.4-2.2-0.4L75.7,68.1z M75.8,59.4l0,4.9l5.4,0c1,0,1.8-0.2,2.4-0.5c0.6-0.4,0.9-1,0.9-2c0-1-0.4-1.7-1.2-2.1
						c-0.7-0.2-1.6-0.4-2.6-0.4L75.8,59.4z M87.9,58c0.7,1,1,2.1,1,3.4c0,1.4-0.4,2.5-1.1,3.3c-0.4,0.5-1,0.9-1.7,1.3
						c1.1,0.4,2,1.1,2.6,2c0.6,0.9,0.9,2,0.8,3.3c0,1.3-0.3,2.5-1,3.6c-0.4,0.7-1,1.3-1.6,1.8c-0.7,0.5-1.6,0.9-2.5,1.1
						c-1,0.2-2,0.3-3.2,0.3l-10.1-0.1l0.2-22.4l10.8,0.1C84.9,55.7,86.8,56.5,87.9,58z"/>
					<path class="st1" d="M100.1,71.2c0.1,1,0.4,1.8,0.8,2.3c0.8,0.9,2.1,1.4,4,1.4c1.1,0,2-0.1,2.7-0.3c1.3-0.5,2-1.3,2-2.6
						c0-0.7-0.3-1.3-1-1.7c-0.7-0.4-1.7-0.8-3.1-1.1l-2.4-0.6c-2.4-0.5-4-1.1-4.9-1.8c-1.5-1-2.2-2.7-2.2-4.9c0-2,0.8-3.7,2.2-5
						c1.5-1.3,3.7-2,6.5-1.9c2.4,0,4.4,0.7,6.1,1.9c1.7,1.3,2.6,3.1,2.6,5.5l-4.5,0c-0.1-1.3-0.7-2.3-1.8-2.9
						c-0.7-0.4-1.7-0.6-2.8-0.6c-1.2,0-2.2,0.2-3,0.7s-1.1,1.2-1.1,2c0,0.8,0.3,1.4,1.1,1.8c0.5,0.3,1.4,0.6,3,0.9l3.9,0.9
						c1.7,0.4,3,1,3.9,1.7c1.3,1.1,2,2.6,2,4.6c0,2-0.8,3.7-2.4,5.1c-1.6,1.3-3.8,2-6.7,2c-2.9,0-5.3-0.7-6.9-2
						c-1.7-1.3-2.5-3.2-2.5-5.5L100.1,71.2z"/>
					<path class="st1" d="M122.7,58.2c1.8-1.8,4.1-2.7,6.9-2.7c3.7,0,6.4,1.3,8.1,3.8c0.9,1.4,1.4,2.8,1.5,4.2l-4.7,0
						c-0.3-1.1-0.7-1.9-1.1-2.4c-0.8-1-2.1-1.5-3.7-1.5c-1.7,0-3,0.7-3.9,2c-1,1.4-1.5,3.3-1.5,5.8c0,2.5,0.5,4.4,1.5,5.7
						c1,1.3,2.3,1.9,3.9,1.9c1.6,0,2.8-0.5,3.7-1.6c0.5-0.6,0.9-1.4,1.2-2.6l4.6,0c-0.4,2.4-1.4,4.4-3.1,5.9
						c-1.7,1.5-3.8,2.3-6.3,2.2c-3.2,0-5.7-1.1-7.5-3.2c-1.8-2.1-2.7-4.9-2.7-8.5C119.6,63.3,120.7,60.3,122.7,58.2"/>
					<path class="st1" d="M155.1,69c1,0.8,2.4,1.2,4.2,1.2c1.7,0,3.1-0.4,4.1-1.2c1-0.8,1.5-1.9,1.5-3.2c0-1.2-0.4-2.2-1.3-2.9
						c-0.5-0.4-1.3-0.8-2.4-1l-2.2-0.5c-1-0.2-1.4-0.4-1.6-0.5c-0.3-0.2-0.4-0.4-0.4-0.7c0-0.4,0.2-0.7,0.5-0.9
						c0.4-0.2,0.9-0.3,1.5-0.3c0.6,0,1.1,0.1,1.4,0.3c0.5,0.3,0.8,0.7,0.8,1.4c0,0.2,0.2,0.3,0.4,0.3l2.6,0c0.1,0,0.2,0,0.3-0.1
						c0.1-0.1,0.1-0.2,0.1-0.3c0-1.5-0.6-2.6-1.6-3.4c-1-0.8-2.3-1.2-3.7-1.2c-1.7,0-3.1,0.4-4,1.2c-0.9,0.8-1.4,1.9-1.4,3.1
						c0,1.4,0.5,2.4,1.4,3.1c0.6,0.4,1.5,0.7,2.9,1.1l1.4,0.3c0.8,0.2,1.3,0.4,1.7,0.6c0.3,0.2,0.4,0.4,0.4,0.7
						c0,0.6-0.3,0.9-0.9,1.2c-0.4,0.1-0.9,0.2-1.5,0.2c-1,0-1.6-0.2-2-0.7c-0.2-0.2-0.3-0.6-0.4-1.1c0-0.2-0.2-0.3-0.4-0.3l-2.6,0
						c-0.2,0-0.4,0.2-0.4,0.3C153.5,67,154,68.2,155.1,69 M162.3,66.1c0-0.5-0.2-1-0.7-1.3c-0.4-0.2-1-0.5-1.9-0.7l-1.4-0.3
						c-1.3-0.3-2.2-0.6-2.7-1c-0.8-0.5-1.1-1.3-1.1-2.5c0-1,0.4-1.9,1.2-2.6s1.9-1,3.5-1c1.3,0,2.4,0.3,3.3,1
						c0.8,0.6,1.2,1.4,1.3,2.5l-1.9,0c-0.1-0.7-0.5-1.3-1.2-1.6c-0.5-0.2-1.1-0.4-1.8-0.4c-0.8,0-1.4,0.2-1.9,0.5
						c-0.5,0.3-0.8,0.8-0.8,1.5c0,0.6,0.3,1,0.8,1.3c0.3,0.2,0.9,0.4,1.8,0.6l2.2,0.5c0.9,0.2,1.6,0.5,2.1,0.9c0.7,0.5,1,1.3,1,2.3
						c0,1.1-0.4,1.9-1.2,2.6c-0.8,0.7-2.1,1.1-3.6,1.1c-1.6,0-2.9-0.4-3.8-1.1c-0.8-0.6-1.2-1.5-1.3-2.5l1.9,0
						c0.1,0.5,0.3,0.9,0.5,1.2c0.5,0.6,1.4,0.9,2.6,0.9c0.7,0,1.2-0.1,1.7-0.2C161.8,67.6,162.3,66.9,162.3,66.1z"/>
					<path class="st1" d="M168.4,70l2.6,0c0.2,0,0.4-0.2,0.4-0.3l0-4.1l0.9-0.9l3.7,5.3c0.1,0.1,0.2,0.2,0.3,0.2l3.4,0
						c0.1,0,0.3-0.1,0.3-0.2c0.1-0.1,0.1-0.3,0-0.4l-5.3-7.3l5.1-5c0.1-0.1,0.1-0.2,0.1-0.4c-0.1-0.1-0.2-0.2-0.3-0.2l-3.5,0
						c-0.1,0-0.2,0-0.3,0.1l-4.4,4.6l0-4.4c0-0.2-0.2-0.4-0.4-0.4l-2.6,0c-0.2,0-0.4,0.2-0.4,0.3l-0.1,12.8
						C168.1,69.8,168.2,70,168.4,70 M171,62.5c0.1,0,0.3,0,0.4-0.1l4.9-5.1l2.4,0l-4.7,4.6c-0.1,0.1-0.1,0.3,0,0.5l5.1,7l-2.6,0
						l-3.8-5.5c-0.1-0.1-0.1-0.1-0.3-0.2c-0.1,0-0.2,0-0.3,0.1l-1.3,1.3c-0.1,0.1-0.1,0.2-0.1,0.2l0,3.9l-1.9,0l0.1-12.1l1.9,0
						l0,4.9C170.8,62.3,170.8,62.4,171,62.5z"/>
					<path class="st1" d="M183,70.1l2.7,0c0.2,0,0.4-0.2,0.4-0.3l0.1-12.8c0-0.2-0.2-0.4-0.4-0.4l-2.7,0c-0.2,0-0.4,0.2-0.4,0.3
						l-0.1,12.8C182.7,69.9,182.8,70.1,183,70.1 M183.5,57.3l1.9,0l-0.1,12.1l-1.9,0L183.5,57.3z"/>
					<path class="st1" d="M190.2,70.2l2.5,0c0.2,0,0.4-0.2,0.4-0.3l0.1-7.8l4.5,8c0.1,0.1,0.2,0.2,0.3,0.2l2.7,0
						c0.2,0,0.4-0.2,0.4-0.3l0.1-12.8c0-0.2-0.2-0.4-0.4-0.4l-2.5,0c-0.2,0-0.4,0.2-0.4,0.3l-0.1,7.6l-4.4-7.8
						c-0.1-0.1-0.2-0.2-0.3-0.2l-2.8,0c-0.2,0-0.4,0.2-0.4,0.3l-0.1,12.8C189.8,70,190,70.2,190.2,70.2 M198.4,66l0.1-8.6l1.8,0
						l-0.1,12.1l-2.1,0l-5.1-9c-0.1-0.1-0.2-0.2-0.4-0.2c-0.2,0-0.3,0.2-0.3,0.3l-0.1,8.7l-1.8,0l0.1-12.1l2.2,0l4.9,8.8
						c0.1,0.1,0.2,0.2,0.4,0.2C198.3,66.3,198.4,66.2,198.4,66z"/>
					<path class="st1" d="M159.7,77.3c0.8,0,1.4,0.2,1.9,0.7c0.2,0.3,0.4,0.7,0.6,1.3c0,0.2,0.2,0.3,0.3,0.3l2.7,0
						c0.1,0,0.2,0,0.3-0.1c0.1-0.1,0.1-0.2,0.1-0.3c0-0.9-0.4-1.7-0.9-2.6c-1-1.5-2.7-2.3-5-2.3c-1.7,0-3.1,0.6-4.2,1.7
						c-1.3,1.3-1.9,3.1-1.9,5.4c0,2.2,0.5,3.9,1.6,5.1c1.1,1.3,2.6,1.9,4.6,1.9c1.6,0,2.9-0.4,3.9-1.4c1-0.9,1.6-2.1,1.9-3.6
						c0-0.1,0-0.2-0.1-0.3s-0.2-0.1-0.3-0.1l-2.7,0c-0.2,0-0.3,0.1-0.3,0.3c-0.2,0.6-0.4,1.1-0.6,1.4c-0.4,0.5-1,0.8-1.8,0.8
						c-0.8,0-1.4-0.3-1.9-1c-0.5-0.7-0.8-1.7-0.8-3c0-1.4,0.3-2.4,0.8-3.1C158.2,77.6,158.9,77.3,159.7,77.3 M156.2,81.4
						c0,1.5,0.3,2.7,0.9,3.5c0.6,0.8,1.5,1.2,2.5,1.2c1,0,1.8-0.3,2.4-1c0.3-0.3,0.5-0.8,0.7-1.3l2,0c-0.3,1.1-0.8,2.1-1.6,2.8
						c-0.9,0.8-2,1.2-3.4,1.2c-1.7,0-3.1-0.6-4-1.7c-1-1.1-1.5-2.7-1.4-4.7c0-2.1,0.6-3.8,1.7-4.9c1-1,2.2-1.5,3.7-1.4
						c2,0,3.5,0.7,4.4,2c0.4,0.6,0.7,1.2,0.8,1.8l-2,0c-0.2-0.5-0.4-1-0.6-1.3c-0.5-0.6-1.3-1-2.4-1c-1.1,0-1.9,0.4-2.6,1.3
						C156.5,78.7,156.2,79.9,156.2,81.4z"/>
					<path class="st1" d="M172.8,83.3l3.3,0c0.1,0,0.2-0.1,0.3-0.1c0.1-0.1,0.1-0.2,0.1-0.3l-1.6-5.1c-0.1-0.2-0.2-0.2-0.3-0.2
						c-0.1,0-0.3,0.1-0.3,0.2l-1.7,5c0,0.1,0,0.2,0.1,0.3C172.5,83.3,172.6,83.3,172.8,83.3 M173.2,82.6l1.2-3.5l1.1,3.6L173.2,82.6
						z"/>
					<path class="st1" d="M177.2,88c0.1,0.2,0.2,0.2,0.3,0.2l2.9,0c0.1,0,0.2-0.1,0.3-0.2c0.1-0.1,0.1-0.2,0.1-0.3l-4.4-12.8
						c-0.1-0.1-0.2-0.2-0.3-0.2l-3,0c-0.1,0-0.3,0.1-0.3,0.2L168,87.7c0,0.1,0,0.2,0,0.3c0.1,0.1,0.2,0.2,0.3,0.2l2.8,0
						c0.1,0,0.3-0.1,0.3-0.2l0.8-2.4l4.2,0L177.2,88z M168.8,87.4l4.4-12.1l2.5,0l4.2,12.1l-2.1,0l-0.8-2.4
						c-0.1-0.2-0.2-0.2-0.3-0.2l-4.7,0c-0.1,0-0.3,0.1-0.3,0.2l-0.8,2.4L168.8,87.4z"/>
					<path class="st1" d="M191.2,77.3c-0.3-0.2-0.8-0.3-1.4-0.3l-3,0c-0.2,0-0.4,0.2-0.4,0.3l0,3.4c0,0.2,0.2,0.4,0.4,0.4l2.9,0
						c0.6,0,1.1-0.1,1.4-0.2c0.6-0.3,1-0.9,1-1.8C192.1,78.2,191.8,77.6,191.2,77.3 M191.4,79.1c0,0.6-0.2,0.9-0.6,1.1
						c-0.2,0.1-0.6,0.2-1.1,0.2l-2.5,0l0-2.7l2.6,0c0.5,0,0.9,0.1,1.1,0.2C191.2,78.1,191.4,78.5,191.4,79.1z"/>
					<path class="st1" d="M190.7,83.6c0.1,0.1,0.3,0.4,0.3,1.4l0,1.2c0,0.4,0,0.8,0.1,1.2c0,0.2,0.1,0.4,0.2,0.7
						c0,0.2,0.2,0.3,0.3,0.3l3,0c0.2,0,0.4-0.2,0.4-0.3v-0.3c0-0.1-0.1-0.2-0.2-0.3c-0.2-0.1-0.3-0.3-0.3-0.5c0-0.1-0.1-0.4-0.1-1.1
						l0-0.9c0-1-0.1-1.7-0.4-2.2c-0.2-0.3-0.4-0.6-0.8-0.8c0.4-0.3,0.8-0.6,1.1-1.1c0.3-0.6,0.5-1.3,0.5-2c0-0.6-0.1-1-0.2-1.5
						c-0.2-0.4-0.4-0.8-0.7-1.2c-0.4-0.4-0.8-0.8-1.3-1c-0.5-0.2-1.2-0.3-2.2-0.4l-6.1,0c-0.2,0-0.4,0.2-0.4,0.3l-0.1,12.8
						c0,0.2,0.2,0.4,0.4,0.4l2.6,0c0.2,0,0.4-0.2,0.4-0.3l0-4.7l2.3,0C190.1,83.3,190.5,83.4,190.7,83.6 M192.4,81.5
						c-0.1,0.1-0.2,0.2-0.2,0.3c0,0.2,0.1,0.3,0.2,0.3c0.5,0.2,0.9,0.5,1.1,0.9c0.2,0.4,0.3,1,0.3,1.8l0,0.9c0,0.6,0,1,0.1,1.3
						s0.1,0.4,0.3,0.6l-2.1,0c0-0.2-0.1-0.3-0.1-0.4c-0.1-0.3-0.1-0.7-0.1-1l0-1.2c0-0.9-0.2-1.5-0.5-1.9c-0.3-0.3-0.9-0.5-1.8-0.5
						l-2.6,0c-0.2,0-0.4,0.2-0.4,0.3l0,4.7l-1.9,0l0.1-12.1l5.8,0c0.8,0,1.5,0.1,1.9,0.3c0.4,0.2,0.8,0.4,1.1,0.8
						c0.2,0.3,0.4,0.6,0.6,1c0.1,0.3,0.2,0.8,0.2,1.2c0,0.6-0.1,1.1-0.4,1.6C193.4,80.9,193,81.3,192.4,81.5z"/>
					<path class="st1" d="M198.8,75.2L198.7,88c0,0.2,0.2,0.4,0.4,0.4l9.7,0.1c0.2,0,0.4-0.2,0.4-0.3l0-2.3c0-0.2-0.2-0.4-0.4-0.4
						l-6.7-0.1l0-2.6l5.9,0c0.2,0,0.4-0.2,0.4-0.3l0-2.2c0-0.2-0.2-0.4-0.4-0.4l-5.9,0l0-2l6.4,0c0.2,0,0.4-0.2,0.4-0.3l0-2.3
						c0-0.2-0.2-0.4-0.4-0.4l-9.4-0.1C198.9,74.8,198.8,75,198.8,75.2 M208.2,77.2l-6.4,0c-0.2,0-0.4,0.2-0.4,0.3l0,2.7
						c0,0.2,0.2,0.4,0.4,0.4l5.9,0l0,1.5l-5.9,0c-0.2,0-0.4,0.2-0.4,0.3l0,3.3c0,0.2,0.2,0.4,0.4,0.4l6.7,0.1l0,1.6l-9-0.1l0.1-12.1
						l8.7,0.1L208.2,77.2z"/>
					<path class="st1" d="M163.5,92.7l-9.1-0.1c-0.2,0-0.4,0.2-0.4,0.3l-0.1,12.8c0,0.2,0.2,0.4,0.4,0.4l2.7,0
						c0.2,0,0.4-0.2,0.4-0.3l0-5l5.3,0c0.2,0,0.4-0.2,0.4-0.3l0-2.2c0-0.2-0.2-0.4-0.4-0.4l-5.3,0l0-2.2l6.1,0
						c0.2,0,0.4-0.2,0.4-0.3l0-2.2C163.8,92.9,163.6,92.7,163.5,92.7 M156.6,95.3l0,2.9c0,0.2,0.2,0.4,0.4,0.4l5.3,0l0,1.5l-5.3,0
						c-0.2,0-0.4,0.2-0.4,0.3l0,5l-1.9,0l0.1-12.1l8.4,0.1l0,1.5l-6.1,0C156.8,94.9,156.6,95.1,156.6,95.3z"/>
					<path class="st1" d="M169.6,92.8l-2.7,0c-0.2,0-0.4,0.2-0.4,0.3l-0.1,12.8c0,0.2,0.2,0.4,0.4,0.4l2.7,0c0.2,0,0.4-0.2,0.4-0.3
						l0.1-12.8C170,92.9,169.9,92.8,169.6,92.8 M169.2,105.6l-1.9,0l0.1-12.1l1.9,0L169.2,105.6z"/>
					<path class="st1" d="M179.7,99.2c0.6,0,1.1-0.1,1.4-0.2c0.6-0.3,1-0.9,1-1.8c0-0.9-0.3-1.6-0.9-1.9c-0.3-0.2-0.8-0.3-1.4-0.3
						l-3,0c-0.2,0-0.4,0.2-0.4,0.3l0,3.4c0,0.2,0.2,0.4,0.4,0.4L179.7,99.2z M177.2,98.5l0-2.7l2.6,0c0.5,0,0.9,0.1,1.1,0.2
						c0.4,0.2,0.6,0.6,0.5,1.3c0,0.6-0.2,0.9-0.6,1.1c-0.2,0.1-0.6,0.2-1.1,0.2L177.2,98.5z"/>
					<path class="st1" d="M184.8,105.4c-0.2-0.1-0.3-0.3-0.3-0.5c0-0.1-0.1-0.4-0.1-1.1l0-0.9c0-1-0.1-1.7-0.4-2.2
						c-0.2-0.3-0.4-0.6-0.8-0.8c0.4-0.3,0.8-0.6,1.1-1.1c0.3-0.6,0.5-1.3,0.5-2c0-0.6-0.1-1-0.2-1.5c-0.2-0.4-0.4-0.8-0.7-1.2
						c-0.4-0.4-0.8-0.8-1.3-1c-0.5-0.2-1.2-0.3-2.2-0.4l-6.1,0c-0.2,0-0.4,0.2-0.4,0.3l-0.1,12.8c0,0.2,0.2,0.4,0.4,0.4l2.6,0
						c0.2,0,0.4-0.2,0.4-0.3l0-4.7l2.3,0c0.6,0,1.1,0.1,1.3,0.3c0.1,0.1,0.3,0.4,0.3,1.4l0,1.2c0,0.4,0,0.8,0.1,1.2
						c0,0.2,0.1,0.4,0.2,0.7c0,0.2,0.2,0.3,0.3,0.3l3,0c0.2,0,0.4-0.2,0.4-0.3v-0.3C184.9,105.6,184.9,105.5,184.8,105.4
						 M176.4,100.9l0,4.7l-1.9,0l0.1-12.1l5.8,0c0.8,0,1.5,0.1,1.9,0.3c0.4,0.2,0.8,0.4,1.1,0.8c0.2,0.3,0.4,0.6,0.6,1
						c0.1,0.3,0.2,0.8,0.2,1.2c0,0.6-0.1,1.1-0.4,1.6c-0.3,0.5-0.7,0.9-1.3,1.1c-0.1,0.1-0.2,0.2-0.2,0.3c0,0.2,0.1,0.3,0.2,0.3
						c0.5,0.2,0.9,0.5,1.1,0.9c0.2,0.4,0.3,1,0.3,1.8l0,0.9c0,0.6,0,1,0.1,1.3s0.1,0.4,0.3,0.6l-2.1,0c0-0.2-0.1-0.3-0.1-0.4
						c-0.1-0.3-0.1-0.7-0.1-1l0-1.2c0-0.9-0.2-1.5-0.5-1.9c-0.3-0.3-0.9-0.5-1.8-0.5l-2.6,0C176.6,100.6,176.4,100.8,176.4,100.9z"
						/>
					<path class="st1" d="M198.1,99.5c-0.5-0.4-1.3-0.8-2.4-1l-2.2-0.6c-1-0.2-1.4-0.4-1.6-0.5c-0.3-0.2-0.4-0.4-0.4-0.7
						c0-0.4,0.2-0.7,0.5-0.9c0.4-0.2,0.9-0.3,1.5-0.3c0.6,0,1.1,0.1,1.4,0.3c0.5,0.3,0.8,0.7,0.8,1.4c0,0.2,0.2,0.3,0.4,0.3l2.6,0
						c0.1,0,0.2,0,0.3-0.1c0.1-0.1,0.1-0.2,0.1-0.3c0-1.5-0.6-2.6-1.6-3.4c-1-0.8-2.3-1.2-3.7-1.2c-1.7,0-3.1,0.4-4,1.2
						c-0.9,0.8-1.4,1.9-1.4,3.1c0,1.4,0.5,2.4,1.4,3.1c0.6,0.4,1.5,0.7,2.9,1.1l1.4,0.3c0.8,0.2,1.3,0.4,1.7,0.6
						c0.3,0.2,0.4,0.4,0.4,0.7c0,0.6-0.3,0.9-0.9,1.2c-0.4,0.1-0.9,0.2-1.5,0.2c-1,0-1.6-0.2-2-0.7c-0.2-0.2-0.3-0.6-0.4-1.1
						c0-0.2-0.2-0.3-0.4-0.3l-2.6,0c-0.2,0-0.4,0.2-0.4,0.3c0,1.4,0.5,2.6,1.6,3.4c1,0.8,2.4,1.2,4.2,1.2c1.7,0,3.1-0.4,4.1-1.2
						c1-0.8,1.5-1.9,1.5-3.2C199.4,101.1,198.9,100.2,198.1,99.5 M196.8,102.6c0-0.5-0.2-1-0.7-1.3c-0.4-0.2-1-0.5-1.9-0.7l-1.4-0.3
						c-1.3-0.3-2.2-0.6-2.7-0.9c-0.8-0.5-1.1-1.3-1.1-2.5c0-1.1,0.4-1.9,1.2-2.6c0.8-0.7,1.9-1,3.5-1c1.3,0,2.4,0.3,3.3,1
						c0.8,0.6,1.2,1.4,1.3,2.5l-1.9,0c-0.1-0.7-0.5-1.3-1.2-1.6c-0.5-0.2-1.1-0.4-1.8-0.4c-0.8,0-1.4,0.2-1.9,0.5
						c-0.5,0.3-0.8,0.8-0.8,1.5c0,0.6,0.3,1.1,0.8,1.3c0.3,0.2,0.9,0.4,1.8,0.6l2.2,0.6c0.9,0.2,1.6,0.5,2.1,0.9
						c0.7,0.5,1,1.3,1,2.3c0,1.1-0.4,1.9-1.2,2.6c-0.8,0.7-2.1,1.1-3.6,1.1c-1.6,0-2.9-0.4-3.8-1.1c-0.8-0.6-1.2-1.5-1.3-2.5l1.9,0
						c0.1,0.5,0.3,0.9,0.5,1.2c0.5,0.6,1.4,0.9,2.6,0.9c0.7,0,1.2-0.1,1.7-0.2C196.3,104.1,196.8,103.4,196.8,102.6z"/>
					<path class="st1" d="M212.3,93L201.9,93c-0.2,0-0.4,0.2-0.4,0.3l0,2.3c0,0.2,0.2,0.4,0.4,0.4l3.5,0l-0.1,10.2
						c0,0.2,0.2,0.4,0.4,0.4l2.7,0c0.2,0,0.4-0.2,0.4-0.3l0.1-10.2l3.5,0c0.2,0,0.4-0.2,0.4-0.3l0-2.3C212.6,93.2,212.4,93,212.3,93
						 M205.7,95.3l-3.5,0l0-1.6l9.7,0.1l0,1.6l-3.5,0c-0.2,0-0.4,0.2-0.4,0.3l-0.1,10.2l-2,0l0.1-10.2
						C206.1,95.4,205.9,95.3,205.7,95.3z"/>
				</g>
			</g>
		</g>
	</g>
	<g>
		<path class="st2" d="M12,37.5c0-0.3-0.3-0.6-0.6-0.6s-0.6,0.3-0.6,0.6c0,10-8.6,10.3-9.5,10.3l0,0l0,0c-0.1,0-0.3,0-0.4,0.1
			c-0.1,0-0.1,0.1-0.2,0.2c-0.1,0.2-0.1,0.4,0,0.6s0.3,0.3,0.5,0.3c0,0,0,0,0,0c1,0,9.5,0.3,9.5,10.3c0,0.3,0.3,0.6,0.6,0.6
			s0.6-0.3,0.6-0.6c0-9.9,8.5-10.3,9.5-10.3l0,0l0,0c0.2,0,0.4-0.1,0.5-0.3c0.1-0.2,0.1-0.4,0-0.6c-0.1-0.2-0.3-0.3-0.5-0.3l0,0l0,0
			l0,0l0,0C20.5,47.7,12,47.4,12,37.5z"/>
		<path class="st2" d="M64.1,1.5c0-0.4-0.4-0.8-0.8-0.8c-0.4,0-0.8,0.4-0.8,0.8c0,13.6-11.7,14.1-13,14.1l0,0l0,0
			c-0.2,0-0.4,0.1-0.5,0.2c-0.1,0.1-0.2,0.2-0.2,0.2c-0.1,0.2-0.1,0.5,0,0.8s0.4,0.4,0.7,0.4c0,0,0,0,0.1,0
			c1.4,0,13.1,0.5,13.1,14.1c0,0.4,0.4,0.8,0.8,0.8c0.4,0,0.8-0.4,0.8-0.8c0-13.6,11.7-14.1,13.1-14.1l0,0l0,0
			c0.3,0,0.5-0.2,0.7-0.4c0.1-0.2,0.1-0.5-0.1-0.8c-0.1-0.2-0.4-0.4-0.7-0.4l0,0l0,0l0,0l0,0C75.9,15.6,64.2,15.2,64.1,1.5z"/>
		<path class="st2" d="M245.8,104.6c0-0.4-0.4-0.8-0.8-0.8c-0.4,0-0.8,0.4-0.8,0.8c0,13.7-11.7,14.1-13.1,14.1l0,0l0,0
			c-0.2,0-0.4,0.1-0.5,0.2c-0.1,0.1-0.2,0.2-0.2,0.2c-0.1,0.2-0.1,0.5,0,0.8s0.4,0.4,0.7,0.4c0,0,0,0,0.1,0
			c1.4,0,13.1,0.5,13.1,14.1c0,0.4,0.4,0.8,0.8,0.8c0.4,0,0.8-0.4,0.8-0.8c0-13.6,11.7-14.1,13.1-14.1l0,0l0,0
			c0.3,0,0.5-0.2,0.7-0.4c0.1-0.2,0.1-0.5-0.1-0.8c-0.1-0.2-0.4-0.4-0.6-0.4l0,0l0,0l0,0l0,0C257.6,118.7,245.9,118.3,245.8,104.6z"
			/>
	</g>
	<g>
		<g>
			<g>
				<g>
					<g>
						<g>
							<path class="st3" d="M50.5,86c-18.3,0.4-32.8,15.6-32.3,33.9s15.6,32.8,33.9,32.4c18.3-0.4,32.8-15.6,32.4-33.9
								C83.9,100.1,68.7,85.6,50.5,86z"/>
						</g>
						<g>
							<path class="st4" d="M50.5,86c-18.3,0.4-32.8,15.6-32.3,33.9s15.6,32.8,33.9,32.4c18.3-0.4,32.8-15.6,32.4-33.9
								C83.9,100.1,68.7,85.6,50.5,86z"/>
						</g>
					</g>
					<g>
						<path class="st1" d="M40.1,101.7c-2,0.1-3.5,1.7-3.5,3.7c0,2,1.7,3.6,3.7,3.5c2-0.1,3.5-1.7,3.5-3.7
							C43.7,103.2,42.1,101.6,40.1,101.7z"/>
						<path class="st1" d="M61.5,101.2c-2,0.1-3.5,1.7-3.5,3.7c0,2,1.7,3.6,3.7,3.5s3.6-1.7,3.5-3.7
							C65.1,102.7,63.5,101.1,61.5,101.2z"/>
						<path class="st1" d="M51.4,128c6.1-0.1,11-5.2,10.9-11.3l-2.2,0.1c0,4.9-3.9,8.9-8.8,9c-4.9,0.1-9-3.7-9.2-8.6l-2.2,0.1
							C40.2,123.3,45.3,128.1,51.4,128z"/>
					</g>
				</g>
			</g>
		</g>
	</g>
</g>
</svg>
