<?xml version="1.0" encoding="utf-8"?>
<!-- Generator: Adobe Illustrator 24.0.0, SVG Export Plug-In . SVG Version: 6.00 Build 0)  -->
<svg version="1.1" id="Capa_1" xmlns="http://www.w3.org/2000/svg" xmlns:xlink="http://www.w3.org/1999/xlink" x="0px" y="0px"
	 viewBox="0 0 260.51 152.84" style="enable-background:new 0 0 260.51 152.84;" xml:space="preserve">
<style type="text/css">
	.st0{fill:#F7C0CD;}
	.st1{fill:#FFFFFF;stroke:#333333;stroke-width:2;stroke-miterlimit:10;}
	.st2{fill:#F4BDD3;}
	.st3{fill:#333333;stroke:#333333;stroke-width:0.5;stroke-miterlimit:10;}
	.st4{fill:#333333;}
	.st5{fill:#FFFFFF;}
	.st6{fill:#999999;}
	.st7{clip-path:url(#SVGID_2_);}
	.st8{clip-path:url(#SVGID_2_);fill:#FFFFFF;stroke:#333333;stroke-width:2;stroke-miterlimit:10;}
	.st9{clip-path:url(#SVGID_2_);fill:#333333;}
	.st10{clip-path:url(#SVGID_2_);fill:#FFFFFF;}
	.st11{clip-path:url(#SVGID_2_);fill:#333333;stroke:#333333;stroke-width:0.5;stroke-miterlimit:10;}
	.st12{clip-path:url(#SVGID_4_);}
	.st13{clip-path:url(#SVGID_6_);}
	.st14{fill:#333333;stroke:#FFFFFF;stroke-width:2;stroke-miterlimit:10;}
	.st15{clip-path:url(#SVGID_8_);}
	.st16{fill:none;stroke:#333333;stroke-miterlimit:10;stroke-dasharray:2;}
	.st17{fill:#333333;stroke:#333333;stroke-miterlimit:10;}
	.st18{fill:#FFFFFF;stroke:#FFFFFF;stroke-width:0.75;stroke-miterlimit:10;}
	.st19{fill:none;stroke:#333333;stroke-miterlimit:10;}
	.st20{fill:#E6E6E6;stroke:#606060;stroke-width:1.5;stroke-miterlimit:10;}
	.st21{fill:#606060;stroke:#606060;stroke-width:0.75;stroke-miterlimit:10;}
	.st22{fill:none;stroke:#606060;stroke-width:2;stroke-miterlimit:10;}
	.st23{fill:#F7C0CD;stroke:#333333;stroke-width:1.5;stroke-miterlimit:10;}
	.st24{fill:#E6E6E6;stroke:#333333;stroke-width:1.5;stroke-miterlimit:10;}
	.st25{fill:#FFFFFF;stroke:#333333;stroke-width:1.5;stroke-miterlimit:10;}
	.st26{fill:#333333;stroke:#333333;stroke-width:2;stroke-miterlimit:10;}
	.st27{fill:none;stroke:#FFFFFF;stroke-width:2;stroke-miterlimit:10;}
	.st28{clip-path:url(#SVGID_10_);}
	.st29{clip-path:url(#SVGID_12_);}
	.st30{fill:#E6E6E6;stroke:#333333;stroke-miterlimit:10;stroke-dasharray:2;}
	.st31{fill:#F7C0CD;stroke:#333333;stroke-width:2;stroke-miterlimit:10;}
	.st32{fill:#FFFFFF;stroke:#333333;stroke-miterlimit:10;stroke-dasharray:2;}
	.st33{clip-path:url(#SVGID_14_);}
	.st34{clip-path:url(#SVGID_14_);fill:#FFFFFF;stroke:#333333;stroke-width:2;stroke-miterlimit:10;}
	.st35{clip-path:url(#SVGID_14_);fill:#333333;}
	.st36{clip-path:url(#SVGID_14_);fill:#FFFFFF;}
	.st37{clip-path:url(#SVGID_14_);fill:#333333;stroke:#333333;stroke-width:0.5;stroke-miterlimit:10;}
	.st38{clip-path:url(#SVGID_16_);}
	.st39{clip-path:url(#SVGID_18_);}
	.st40{clip-path:url(#SVGID_20_);}
	.st41{clip-path:url(#SVGID_22_);}
	.st42{clip-path:url(#SVGID_24_);}
	.st43{clip-path:url(#SVGID_26_);}
	.st44{clip-path:url(#SVGID_26_);fill:#FFFFFF;stroke:#333333;stroke-width:2;stroke-miterlimit:10;}
	.st45{clip-path:url(#SVGID_26_);fill:#333333;}
	.st46{clip-path:url(#SVGID_26_);fill:#FFFFFF;}
	.st47{clip-path:url(#SVGID_26_);fill:#333333;stroke:#333333;stroke-width:0.5;stroke-miterlimit:10;}
	.st48{clip-path:url(#SVGID_28_);}
	.st49{clip-path:url(#SVGID_30_);}
	.st50{clip-path:url(#SVGID_32_);}
	.st51{clip-path:url(#SVGID_34_);}
	.st52{clip-path:url(#SVGID_36_);}
	.st53{fill:#333333;stroke:#E6E6E6;stroke-miterlimit:10;stroke-dasharray:2;}
	.st54{clip-path:url(#SVGID_38_);}
	.st55{clip-path:url(#SVGID_38_);fill:#FFFFFF;stroke:#333333;stroke-width:2;stroke-miterlimit:10;}
	.st56{clip-path:url(#SVGID_38_);fill:#333333;}
	.st57{clip-path:url(#SVGID_38_);fill:#FFFFFF;}
	.st58{clip-path:url(#SVGID_38_);fill:#333333;stroke:#333333;stroke-width:0.5;stroke-miterlimit:10;}
	.st59{clip-path:url(#SVGID_40_);}
	.st60{clip-path:url(#SVGID_42_);}
	.st61{clip-path:url(#SVGID_44_);}
	.st62{clip-path:url(#SVGID_46_);}
	.st63{clip-path:url(#SVGID_48_);}
	.st64{fill:#C7E7F1;stroke:#000000;stroke-miterlimit:10;}
	.st65{fill:none;stroke:#000000;stroke-width:2;stroke-miterlimit:10;}
	.st66{fill:#FFFFFF;stroke:#333333;stroke-miterlimit:10;}
	.st67{fill:#F7C0CD;stroke:#333333;stroke-miterlimit:10;}
	.st68{fill:none;stroke:#FFFFFF;stroke-miterlimit:10;stroke-dasharray:2;}
	.st69{fill:none;stroke:#FFFFFF;stroke-miterlimit:10;}
	.st70{fill:#F1F1F1;}
	.st71{fill:#FDF3C9;}
	.st72{fill:#C7E7F1;}
	.st73{fill-rule:evenodd;clip-rule:evenodd;fill:#333333;}
	.st74{fill:#EEC1CC;}
	.st75{fill:#FDF3C9;stroke:#000000;stroke-miterlimit:10;}
	.st76{clip-path:url(#SVGID_50_);}
	.st77{opacity:0.1;fill:#333333;}
	.st78{fill-rule:evenodd;clip-rule:evenodd;fill:#FDF3C9;stroke:#333333;stroke-width:2;stroke-miterlimit:10;}
	.st79{fill:#1D1D1B;}
	.st80{fill:none;stroke:#333333;stroke-width:2;stroke-miterlimit:10;}
	.st81{fill:#F7C0CD;stroke:#333333;stroke-width:3;stroke-miterlimit:10;}
	.st82{fill:#FDF3C9;stroke:#333333;stroke-width:3;stroke-miterlimit:10;}
	.st83{fill:#C7E7F1;stroke:#333333;stroke-width:3;stroke-miterlimit:10;}
	.st84{fill:none;stroke:#FFFFFF;stroke-width:1.5;stroke-miterlimit:10;}
	.st85{fill:none;stroke:#333333;stroke-width:1.8;stroke-miterlimit:10;}
	.st86{fill:#FDF3C9;stroke:#333333;stroke-width:2;stroke-miterlimit:10;}
	.st87{fill:none;stroke:#333333;stroke-width:2;stroke-linecap:round;stroke-linejoin:round;stroke-miterlimit:10;}
	.st88{clip-path:url(#SVGID_54_);}
	.st89{fill:#E6E6E6;stroke:#333333;stroke-miterlimit:10;}
	.st90{fill-rule:evenodd;clip-rule:evenodd;fill:#FDF3C9;stroke:#333333;stroke-miterlimit:10;}
	.st91{fill:#EEC1CC;stroke:#333333;stroke-miterlimit:10;}
	.st92{fill:#FDF3C9;stroke:#333333;stroke-miterlimit:10;}
	.st93{fill-rule:evenodd;clip-rule:evenodd;fill:#C7E7F1;stroke:#000000;stroke-miterlimit:10;}
	.st94{opacity:0.5;}
	.st95{fill-rule:evenodd;clip-rule:evenodd;fill:#EEC1CC;stroke:#333333;stroke-miterlimit:10;}
	.st96{opacity:0.5;fill:none;stroke:#333333;stroke-width:2;stroke-linecap:round;stroke-linejoin:round;stroke-miterlimit:10;}
	.st97{clip-path:url(#SVGID_56_);}
	.st98{fill-rule:evenodd;clip-rule:evenodd;fill:#F7C0CD;stroke:#333333;stroke-miterlimit:10;}
</style>
<g>
	<g>
		<g>
			
				<rect x="82.74" y="-20.28" transform="matrix(6.310434e-03 -1 1 6.310434e-03 59.8653 222.5592)" class="st90" width="118.34" height="202.88"/>
			<g>
				<g>
					<path class="st4" d="M138.89,99.58c-2.61-0.02-3.94-1.37-5.11-2.55c-1.08-1.1-2.02-2.05-3.95-2.06c-1.93-0.01-2.88,0.92-3.98,2
						c-1.19,1.17-2.53,2.49-5.14,2.47c-2.61-0.02-3.94-1.37-5.1-2.55c-1.08-1.1-2.02-2.05-3.95-2.06c-1.93-0.02-2.88,0.92-3.98,2
						c-1.19,1.17-2.53,2.49-5.14,2.47c-2.61-0.02-3.94-1.37-5.1-2.55c-1.08-1.1-2.02-2.05-3.95-2.06l0.01-1.64
						c2.61,0.02,3.94,1.37,5.1,2.55c1.08,1.1,2.02,2.05,3.95,2.06c1.93,0.02,2.88-0.92,3.98-2c1.19-1.17,2.53-2.49,5.14-2.47
						c2.61,0.02,3.94,1.37,5.1,2.55c1.08,1.1,2.02,2.05,3.95,2.06c1.93,0.01,2.88-0.92,3.98-2c1.19-1.17,2.53-2.49,5.14-2.47
						c2.61,0.02,3.94,1.37,5.11,2.55c1.08,1.1,2.02,2.05,3.95,2.06L138.89,99.58z"/>
					<path class="st4" d="M138.83,106.95c-2.61-0.02-3.94-1.37-5.1-2.55c-1.08-1.1-2.02-2.05-3.95-2.06c-1.93-0.01-2.88,0.92-3.98,2
						c-1.19,1.17-2.53,2.49-5.14,2.47c-2.61-0.02-3.94-1.37-5.1-2.55c-1.08-1.1-2.02-2.05-3.95-2.06c-1.93-0.01-2.88,0.92-3.98,2
						c-1.19,1.17-2.53,2.49-5.14,2.47c-2.61-0.02-3.94-1.37-5.1-2.55c-1.08-1.1-2.02-2.05-3.95-2.06l0.01-1.64
						c2.61,0.02,3.94,1.37,5.1,2.55c1.08,1.1,2.02,2.05,3.95,2.06c1.93,0.02,2.88-0.92,3.98-2c1.19-1.17,2.53-2.49,5.14-2.47
						c2.61,0.02,3.94,1.37,5.1,2.55c1.08,1.1,2.02,2.05,3.95,2.06c1.93,0.01,2.88-0.92,3.98-2c1.19-1.17,2.53-2.49,5.14-2.47
						c2.61,0.02,3.94,1.37,5.11,2.55c1.08,1.1,2.02,2.05,3.95,2.06L138.83,106.95z"/>
					<path class="st4" d="M138.95,92.22c-2.61-0.02-3.94-1.37-5.11-2.55c-1.08-1.1-2.02-2.05-3.95-2.06c-1.93-0.01-2.88,0.92-3.98,2
						c-1.19,1.17-2.53,2.49-5.14,2.47c-2.61-0.02-3.94-1.37-5.1-2.55c-1.08-1.1-2.02-2.05-3.95-2.06c-1.93-0.01-2.88,0.92-3.98,2
						c-1.19,1.17-2.53,2.49-5.14,2.47c-2.61-0.02-3.94-1.37-5.1-2.55c-1.08-1.1-2.02-2.05-3.95-2.06l0.01-1.64
						c2.61,0.02,3.94,1.37,5.1,2.55c1.08,1.1,2.02,2.05,3.95,2.06c1.93,0.02,2.88-0.92,3.98-2c1.19-1.17,2.53-2.49,5.14-2.47
						c2.61,0.02,3.94,1.37,5.1,2.55c1.08,1.1,2.02,2.05,3.95,2.06c1.93,0.02,2.88-0.92,3.98-2c1.19-1.17,2.53-2.49,5.14-2.47
						c2.61,0.02,3.94,1.37,5.11,2.55c1.08,1.1,2.02,2.05,3.95,2.06L138.95,92.22z"/>
					<path class="st4" d="M75.7,68.08l-0.04,5.96l5.43,0.04c0.97,0.01,1.73-0.12,2.27-0.38c0.98-0.48,1.48-1.41,1.49-2.78
						c0.01-1.16-0.46-1.97-1.41-2.41c-0.53-0.25-1.27-0.38-2.23-0.4L75.7,68.08z M75.76,59.44l-0.03,4.93l5.43,0.04
						c0.97,0.01,1.76-0.17,2.37-0.54c0.61-0.36,0.92-1.02,0.92-1.96c0.01-1.04-0.39-1.73-1.19-2.07c-0.69-0.24-1.57-0.36-2.64-0.37
						L75.76,59.44z M87.91,58.03c0.68,0.96,1.01,2.1,1,3.42c-0.01,1.37-0.36,2.46-1.06,3.28c-0.39,0.46-0.96,0.88-1.71,1.26
						c1.14,0.42,1.99,1.09,2.57,1.99c0.57,0.9,0.86,2,0.85,3.28c-0.01,1.32-0.35,2.51-1.02,3.56c-0.43,0.69-0.96,1.28-1.6,1.75
						c-0.72,0.54-1.56,0.91-2.54,1.1c-0.97,0.2-2.02,0.29-3.16,0.28l-10.08-0.07l0.16-22.36l10.81,0.08
						C84.86,55.66,86.78,56.47,87.91,58.03z"/>
					<path class="st4" d="M100.05,71.19c0.14,1.02,0.42,1.79,0.84,2.3c0.77,0.93,2.09,1.4,3.97,1.41c1.13,0.01,2.04-0.11,2.74-0.35
						c1.34-0.46,2.01-1.32,2.02-2.58c0.01-0.74-0.32-1.31-0.97-1.72c-0.65-0.4-1.68-0.76-3.1-1.07l-2.42-0.55
						c-2.38-0.54-4.01-1.13-4.89-1.75c-1.5-1.04-2.24-2.66-2.23-4.86c0.01-2,0.76-3.66,2.25-4.98c1.48-1.31,3.65-1.96,6.51-1.94
						c2.39,0.02,4.42,0.66,6.09,1.92c1.68,1.26,2.55,3.08,2.61,5.46l-4.49-0.03c-0.07-1.35-0.67-2.31-1.78-2.88
						c-0.74-0.38-1.67-0.57-2.78-0.58c-1.23-0.01-2.22,0.23-2.96,0.71c-0.74,0.48-1.11,1.16-1.12,2.03c-0.01,0.8,0.35,1.4,1.08,1.8
						c0.46,0.27,1.45,0.58,2.96,0.95l3.92,0.95c1.72,0.42,3,0.97,3.86,1.65c1.33,1.06,1.98,2.59,1.97,4.58
						c-0.01,2.04-0.82,3.73-2.4,5.07c-1.59,1.34-3.83,2-6.71,1.98c-2.94-0.02-5.26-0.7-6.93-2.04c-1.68-1.34-2.51-3.18-2.49-5.5
						L100.05,71.19z"/>
					<path class="st4" d="M122.74,58.22c1.81-1.83,4.11-2.73,6.89-2.71c3.72,0.03,6.43,1.28,8.14,3.76c0.94,1.39,1.44,2.79,1.5,4.18
						l-4.67-0.03c-0.29-1.07-0.67-1.89-1.13-2.44c-0.82-0.98-2.06-1.47-3.69-1.48c-1.67-0.01-2.98,0.66-3.95,2.03
						c-0.97,1.36-1.46,3.3-1.48,5.81c-0.02,2.51,0.48,4.39,1.48,5.65c1.01,1.26,2.29,1.89,3.85,1.9c1.6,0.01,2.83-0.52,3.68-1.58
						c0.47-0.57,0.86-1.44,1.18-2.59l4.64,0.03c-0.42,2.43-1.45,4.41-3.11,5.93c-1.66,1.52-3.77,2.26-6.34,2.25
						c-3.18-0.02-5.68-1.07-7.48-3.15c-1.81-2.09-2.7-4.93-2.67-8.54C119.6,63.32,120.66,60.32,122.74,58.22"/>
					<path class="st4" d="M155.09,69.03c1.02,0.82,2.43,1.24,4.19,1.25c1.73,0.01,3.1-0.4,4.08-1.22c0.99-0.83,1.49-1.9,1.5-3.18
						c0.01-1.25-0.42-2.23-1.26-2.9c-0.53-0.42-1.32-0.76-2.35-1.01L159,61.42c-1.03-0.25-1.45-0.41-1.61-0.51
						c-0.3-0.17-0.44-0.39-0.43-0.72c0-0.38,0.16-0.66,0.48-0.87c0.36-0.24,0.87-0.35,1.5-0.35c0.58,0,1.06,0.1,1.43,0.29
						c0.52,0.27,0.8,0.71,0.83,1.36c0.01,0.19,0.16,0.33,0.35,0.33l2.57,0.02c0.1,0,0.19-0.04,0.26-0.11
						c0.07-0.07,0.1-0.16,0.1-0.26c-0.04-1.47-0.59-2.61-1.64-3.4c-1.02-0.77-2.26-1.16-3.7-1.17c-1.72-0.01-3.06,0.39-3.97,1.2
						c-0.92,0.82-1.4,1.87-1.41,3.12c-0.01,1.38,0.47,2.41,1.43,3.07c0.55,0.39,1.51,0.73,2.93,1.06l1.39,0.31
						c0.77,0.17,1.33,0.36,1.66,0.57c0.27,0.17,0.39,0.38,0.39,0.68c0,0.58-0.29,0.93-0.92,1.15c-0.36,0.12-0.85,0.18-1.46,0.18
						c-0.96-0.01-1.64-0.24-2.01-0.68c-0.2-0.24-0.33-0.62-0.4-1.14c-0.02-0.17-0.17-0.31-0.35-0.31l-2.56-0.02
						c-0.2,0-0.36,0.16-0.36,0.35C153.51,67.04,154.04,68.2,155.09,69.03 M162.28,66.07c0-0.54-0.25-0.99-0.72-1.29
						c-0.41-0.25-1.03-0.47-1.88-0.66l-1.39-0.31c-1.31-0.3-2.21-0.62-2.68-0.95c-0.76-0.53-1.13-1.35-1.12-2.49
						c0.01-1.05,0.39-1.9,1.17-2.59c0.78-0.69,1.95-1.04,3.5-1.02c1.28,0.01,2.39,0.35,3.28,1.03c0.79,0.6,1.23,1.41,1.33,2.49
						l-1.88-0.01c-0.12-0.73-0.52-1.28-1.18-1.62c-0.48-0.24-1.07-0.37-1.75-0.37c-0.77-0.01-1.41,0.15-1.89,0.46
						c-0.53,0.34-0.8,0.83-0.8,1.46c0,0.59,0.27,1.05,0.79,1.34c0.3,0.17,0.88,0.36,1.79,0.58l2.25,0.55
						c0.93,0.22,1.63,0.52,2.07,0.88c0.68,0.54,1,1.31,0.99,2.35c-0.01,1.07-0.42,1.94-1.25,2.64c-0.84,0.71-2.06,1.06-3.61,1.05
						c-1.6-0.01-2.86-0.38-3.76-1.09c-0.8-0.64-1.22-1.46-1.29-2.52l1.89,0.01c0.1,0.51,0.27,0.9,0.51,1.19
						c0.51,0.61,1.36,0.93,2.55,0.94c0.68,0,1.25-0.07,1.69-0.22C161.79,67.57,162.27,66.94,162.28,66.07z"/>
					<path class="st4" d="M168.41,70.01l2.64,0.02c0.2,0,0.36-0.16,0.36-0.35l0.03-4.14l0.9-0.9l3.67,5.28
						c0.07,0.09,0.17,0.15,0.29,0.15l3.44,0.02c0.13,0,0.26-0.07,0.32-0.19c0.06-0.12,0.05-0.26-0.03-0.37l-5.3-7.34l5.08-5.02
						c0.1-0.1,0.13-0.25,0.08-0.39c-0.05-0.13-0.18-0.22-0.33-0.22l-3.46-0.02c-0.1,0-0.19,0.04-0.26,0.11l-4.37,4.6l0.03-4.39
						c0-0.2-0.16-0.36-0.35-0.36l-2.64-0.02c-0.2,0-0.36,0.16-0.36,0.35l-0.09,12.82C168.06,69.85,168.22,70.01,168.41,70.01
						 M170.97,62.47c0.13,0.05,0.29,0.02,0.39-0.08l4.88-5.14l2.45,0.02l-4.69,4.64c-0.12,0.12-0.14,0.32-0.04,0.46l5.07,7.02
						l-2.56-0.02l-3.81-5.47c-0.06-0.09-0.15-0.14-0.26-0.15c-0.1-0.01-0.21,0.03-0.28,0.1l-1.3,1.3c-0.07,0.07-0.1,0.15-0.1,0.25
						l-0.03,3.93l-1.93-0.01l0.08-12.11l1.93,0.01l-0.03,4.93C170.75,62.28,170.83,62.41,170.97,62.47z"/>
					<path class="st4" d="M183.03,70.11l2.66,0.02c0.2,0,0.36-0.16,0.36-0.35l0.09-12.82c0-0.2-0.16-0.36-0.35-0.36l-2.66-0.02
						c-0.2,0-0.36,0.16-0.36,0.35l-0.09,12.82C182.67,69.95,182.83,70.11,183.03,70.11 M183.47,57.3l1.95,0.01l-0.08,12.11
						l-1.95-0.01L183.47,57.3z"/>
					<path class="st4" d="M190.16,70.16l2.5,0.02c0.2,0,0.36-0.16,0.36-0.35l0.05-7.77l4.5,7.98c0.06,0.11,0.18,0.18,0.31,0.18
						l2.68,0.02c0.2,0,0.36-0.16,0.36-0.35L201,57.06c0-0.2-0.16-0.36-0.35-0.36l-2.5-0.02c-0.2,0-0.36,0.16-0.36,0.35l-0.05,7.6
						l-4.37-7.81c-0.06-0.11-0.18-0.18-0.31-0.18l-2.81-0.02c-0.2,0-0.36,0.16-0.36,0.35l-0.09,12.82
						C189.81,70,189.97,70.16,190.16,70.16 M198.44,65.99l0.06-8.59l1.79,0.01l-0.08,12.11l-2.12-0.01l-5.05-8.95
						c-0.08-0.14-0.24-0.21-0.4-0.17c-0.16,0.04-0.26,0.18-0.27,0.34l-0.06,8.74l-1.79-0.01l0.08-12.11l2.25,0.02l4.93,8.79
						c0.08,0.14,0.24,0.21,0.4,0.17C198.33,66.29,198.44,66.15,198.44,65.99z"/>
					<path class="st4" d="M159.69,77.3c0.84,0.01,1.44,0.24,1.85,0.72c0.23,0.27,0.42,0.7,0.58,1.26c0.04,0.15,0.18,0.26,0.34,0.26
						l2.68,0.02c0.1,0,0.19-0.04,0.26-0.11c0.07-0.07,0.1-0.16,0.1-0.26c-0.04-0.86-0.35-1.73-0.92-2.58
						c-1.04-1.52-2.71-2.29-4.96-2.31c-1.69-0.01-3.1,0.55-4.21,1.66c-1.26,1.27-1.9,3.09-1.92,5.41c-0.01,2.15,0.53,3.88,1.62,5.13
						c1.1,1.26,2.63,1.91,4.55,1.93c1.56,0.01,2.86-0.45,3.88-1.38c1.01-0.92,1.64-2.13,1.89-3.6c0.02-0.1-0.01-0.21-0.08-0.29
						c-0.07-0.08-0.16-0.13-0.27-0.13l-2.66-0.02c-0.16,0-0.3,0.11-0.34,0.26c-0.17,0.61-0.37,1.06-0.61,1.36
						c-0.42,0.53-1.02,0.78-1.83,0.77c-0.79-0.01-1.42-0.32-1.93-0.96c-0.52-0.65-0.78-1.66-0.77-3.01
						c0.01-1.36,0.27-2.41,0.78-3.13C158.21,77.63,158.85,77.3,159.69,77.3 M156.22,81.44c-0.01,1.52,0.3,2.68,0.93,3.46
						c0.64,0.8,1.48,1.22,2.48,1.22c1.03,0.01,1.83-0.34,2.39-1.04c0.27-0.32,0.48-0.77,0.66-1.35l1.96,0.01
						c-0.26,1.13-0.8,2.06-1.59,2.79c-0.88,0.8-2.02,1.2-3.39,1.2c-1.71-0.01-3.06-0.58-4.02-1.68c-0.97-1.12-1.46-2.69-1.45-4.66
						c0.01-2.13,0.59-3.79,1.71-4.92c0.97-0.97,2.21-1.46,3.7-1.45c2,0.01,3.47,0.69,4.38,2c0.41,0.61,0.67,1.23,0.76,1.84
						l-2.02-0.01c-0.17-0.54-0.38-0.96-0.64-1.27c-0.54-0.64-1.34-0.97-2.38-0.98c-1.07-0.01-1.93,0.43-2.56,1.31
						C156.54,78.74,156.23,79.93,156.22,81.44z"/>
					<path class="st4" d="M172.75,83.33l3.28,0.02c0.11,0,0.22-0.05,0.29-0.14c0.07-0.09,0.09-0.21,0.05-0.32l-1.58-5.06
						c-0.05-0.15-0.18-0.25-0.34-0.25c-0.15,0-0.29,0.1-0.34,0.24l-1.7,5.03c-0.04,0.11-0.02,0.23,0.05,0.32
						C172.53,83.27,172.63,83.33,172.75,83.33 M173.24,82.62l1.19-3.54l1.11,3.56L173.24,82.62z"/>
					<path class="st4" d="M177.22,87.96c0.05,0.15,0.18,0.25,0.33,0.25l2.9,0.02c0.11,0,0.22-0.05,0.29-0.15
						c0.07-0.09,0.08-0.21,0.05-0.32l-4.45-12.85c-0.05-0.14-0.18-0.24-0.33-0.24l-3.03-0.02c-0.15,0-0.28,0.09-0.34,0.23
						l-4.66,12.79c-0.04,0.11-0.02,0.23,0.04,0.32c0.07,0.09,0.17,0.15,0.29,0.15l2.8,0.02c0.15,0,0.29-0.1,0.34-0.24l0.81-2.39
						l4.21,0.03L177.22,87.96z M168.82,87.44l4.41-12.08l2.53,0.02l4.2,12.14l-2.15-0.01l-0.75-2.4c-0.05-0.15-0.18-0.25-0.33-0.25
						l-4.72-0.03c-0.15,0-0.29,0.1-0.34,0.24l-0.81,2.39L168.82,87.44z"/>
					<path class="st4" d="M191.22,77.27c-0.33-0.18-0.79-0.28-1.41-0.28l-2.96-0.02c-0.19,0-0.36,0.16-0.36,0.35l-0.02,3.44
						c0,0.2,0.16,0.36,0.35,0.36l2.88,0.02c0.63,0,1.1-0.07,1.44-0.23c0.64-0.3,0.97-0.89,0.97-1.76
						C192.14,78.24,191.83,77.6,191.22,77.27 M191.42,79.14c0,0.58-0.19,0.94-0.57,1.12c-0.24,0.11-0.62,0.17-1.14,0.17l-2.53-0.02
						l0.02-2.74l2.6,0.02c0.49,0,0.85,0.07,1.07,0.19C191.25,78.09,191.43,78.5,191.42,79.14z"/>
					<path class="st4" d="M190.7,83.57c0.11,0.12,0.3,0.45,0.31,1.39l0.01,1.19c0,0.4,0.04,0.79,0.11,1.17
						c0.04,0.18,0.09,0.43,0.18,0.72c0.04,0.15,0.18,0.26,0.34,0.26l2.96,0.02c0.2,0,0.36-0.16,0.36-0.35l0-0.32
						c0-0.12-0.06-0.24-0.17-0.3c-0.17-0.11-0.28-0.27-0.33-0.51c-0.03-0.12-0.06-0.42-0.05-1.11l0.01-0.86
						c0.01-0.97-0.12-1.68-0.4-2.18c-0.18-0.32-0.43-0.6-0.76-0.83c0.45-0.27,0.81-0.64,1.05-1.1c0.34-0.63,0.51-1.29,0.52-1.96
						c0-0.55-0.08-1.04-0.25-1.48c-0.17-0.43-0.4-0.82-0.69-1.18c-0.36-0.44-0.81-0.78-1.33-1c-0.52-0.23-1.22-0.35-2.16-0.37
						l-6.13-0.04c-0.2,0-0.36,0.16-0.36,0.35l-0.09,12.82c0,0.2,0.16,0.36,0.35,0.36l2.62,0.02c0.2,0,0.36-0.16,0.36-0.35l0.03-4.67
						l2.26,0.02C190.06,83.26,190.51,83.37,190.7,83.57 M192.35,81.49c-0.14,0.05-0.24,0.18-0.24,0.32c0,0.15,0.08,0.28,0.22,0.34
						c0.51,0.21,0.87,0.5,1.07,0.87c0.21,0.38,0.32,1,0.31,1.83l-0.01,0.86c0,0.62,0.02,1.03,0.07,1.27
						c0.05,0.24,0.14,0.45,0.28,0.63l-2.13-0.01c-0.04-0.16-0.07-0.29-0.09-0.4c-0.06-0.34-0.1-0.69-0.1-1.04l-0.01-1.19
						c-0.01-0.92-0.17-1.54-0.51-1.88c-0.34-0.35-0.92-0.52-1.77-0.52l-2.62-0.02c-0.19,0-0.36,0.16-0.36,0.35l-0.03,4.67
						l-1.91-0.01l0.08-12.11l5.77,0.04c0.83,0.02,1.46,0.13,1.89,0.32c0.42,0.18,0.77,0.45,1.06,0.8c0.24,0.3,0.44,0.63,0.58,0.99
						c0.14,0.35,0.21,0.76,0.2,1.22c0,0.55-0.15,1.1-0.43,1.63C193.41,80.93,192.97,81.28,192.35,81.49z"/>
					<path class="st4" d="M198.79,75.18L198.7,88c0,0.2,0.16,0.36,0.35,0.36l9.72,0.07c0.2,0,0.36-0.16,0.36-0.35l0.02-2.31
						c0-0.19-0.16-0.36-0.35-0.36l-6.74-0.05l0.02-2.59l5.87,0.04c0.2,0,0.36-0.16,0.36-0.35l0.02-2.23c0-0.2-0.16-0.36-0.35-0.36
						l-5.87-0.04l0.01-2.01l6.43,0.04c0.2,0,0.36-0.16,0.36-0.35l0.02-2.27c0-0.2-0.16-0.36-0.35-0.36l-9.4-0.07
						C198.95,74.82,198.79,74.98,198.79,75.18 M208.18,77.16l-6.43-0.04c-0.2,0-0.36,0.16-0.36,0.35l-0.02,2.72
						c0,0.2,0.16,0.36,0.35,0.36l5.87,0.04l-0.01,1.52l-5.87-0.04c-0.2,0-0.36,0.16-0.36,0.35l-0.02,3.3c0,0.2,0.16,0.36,0.35,0.36
						l6.74,0.05l-0.01,1.6l-9.01-0.06l0.08-12.11l8.69,0.06L208.18,77.16z"/>
					<path class="st4" d="M163.46,92.72l-9.14-0.06c-0.2,0-0.36,0.16-0.36,0.35l-0.09,12.8c0,0.19,0.16,0.36,0.35,0.36l2.66,0.02
						c0.2,0,0.36-0.16,0.36-0.35l0.03-5.02l5.33,0.04c0.2,0,0.36-0.16,0.36-0.35l0.02-2.23c0-0.2-0.16-0.36-0.35-0.36l-5.33-0.04
						l0.02-2.24l6.13,0.04c0.2,0,0.36-0.16,0.36-0.35l0.02-2.25C163.81,92.88,163.65,92.72,163.46,92.72 M156.61,95.28l-0.02,2.95
						c0,0.2,0.16,0.36,0.35,0.36l5.33,0.04l-0.01,1.52l-5.33-0.04c-0.2,0-0.36,0.16-0.36,0.35l-0.03,5.02l-1.95-0.01l0.08-12.09
						l8.43,0.06l-0.01,1.54l-6.13-0.04C156.77,94.93,156.61,95.09,156.61,95.28z"/>
					<path class="st4" d="M169.65,92.75l-2.66-0.02c-0.2,0-0.36,0.16-0.36,0.35l-0.09,12.82c0,0.2,0.16,0.36,0.35,0.36l2.66,0.02
						c0.2,0,0.36-0.16,0.36-0.35l0.09-12.82C170.01,92.91,169.85,92.75,169.65,92.75 M169.21,105.56l-1.95-0.01l0.08-12.11
						l1.95,0.01L169.21,105.56z"/>
					<path class="st4" d="M179.69,99.2c0.63,0,1.11-0.07,1.44-0.23c0.64-0.3,0.97-0.89,0.97-1.76c0.01-0.91-0.3-1.55-0.91-1.88
						c-0.33-0.18-0.79-0.28-1.41-0.28l-2.96-0.02c-0.2,0-0.36,0.16-0.36,0.35l-0.02,3.44c0,0.2,0.16,0.36,0.35,0.36L179.69,99.2z
						 M177.17,98.47l0.02-2.74l2.6,0.02c0.49,0,0.85,0.07,1.07,0.19c0.37,0.2,0.55,0.62,0.54,1.26c0,0.58-0.19,0.94-0.57,1.12
						c-0.24,0.11-0.62,0.17-1.14,0.17L177.17,98.47z"/>
					<path class="st4" d="M184.77,105.4c-0.17-0.11-0.28-0.27-0.33-0.51c-0.03-0.12-0.06-0.42-0.05-1.11l0.01-0.86
						c0.01-0.97-0.12-1.68-0.4-2.18c-0.18-0.32-0.43-0.6-0.76-0.83c0.45-0.27,0.81-0.64,1.05-1.1c0.34-0.63,0.51-1.29,0.52-1.96
						c0-0.55-0.08-1.04-0.25-1.48c-0.17-0.43-0.4-0.82-0.69-1.18c-0.36-0.44-0.81-0.78-1.33-1c-0.52-0.23-1.22-0.35-2.16-0.37
						l-6.13-0.04c-0.2,0-0.36,0.16-0.36,0.35l-0.09,12.82c0,0.2,0.16,0.36,0.35,0.36l2.62,0.02c0.2,0,0.36-0.16,0.36-0.35l0.03-4.67
						l2.26,0.02c0.63,0,1.08,0.12,1.27,0.31c0.11,0.12,0.31,0.45,0.31,1.39l0.01,1.19c0,0.4,0.04,0.79,0.11,1.17
						c0.04,0.18,0.09,0.42,0.18,0.72c0.04,0.15,0.18,0.26,0.34,0.26l2.96,0.02c0.19,0,0.36-0.16,0.36-0.35l0-0.32
						C184.94,105.58,184.88,105.47,184.77,105.4 M176.44,100.94l-0.03,4.67l-1.91-0.01l0.08-12.11l5.77,0.04
						c0.83,0.02,1.46,0.13,1.89,0.32c0.42,0.18,0.77,0.45,1.06,0.8c0.24,0.3,0.44,0.63,0.58,0.99c0.14,0.35,0.21,0.76,0.2,1.22
						c0,0.55-0.15,1.1-0.43,1.63c-0.27,0.51-0.71,0.86-1.33,1.07c-0.14,0.05-0.24,0.18-0.24,0.32c0,0.15,0.08,0.28,0.22,0.34
						c0.51,0.21,0.87,0.5,1.07,0.87c0.21,0.38,0.32,1,0.31,1.83l-0.01,0.86c0,0.63,0.02,1.03,0.07,1.27
						c0.05,0.24,0.14,0.45,0.28,0.63l-2.13-0.01c-0.04-0.16-0.07-0.29-0.09-0.4c-0.06-0.34-0.1-0.69-0.1-1.04l-0.01-1.19
						c-0.01-0.92-0.17-1.54-0.51-1.88c-0.34-0.35-0.92-0.52-1.77-0.52l-2.62-0.02C176.6,100.59,176.44,100.75,176.44,100.94z"/>
					<path class="st4" d="M198.08,99.47c-0.53-0.42-1.32-0.76-2.35-1.01l-2.25-0.55c-1.03-0.25-1.45-0.41-1.61-0.51
						c-0.3-0.17-0.44-0.39-0.43-0.72c0-0.38,0.16-0.66,0.48-0.87c0.36-0.24,0.87-0.35,1.5-0.35c0.58,0,1.06,0.1,1.43,0.29
						c0.52,0.27,0.8,0.71,0.83,1.36c0.01,0.19,0.16,0.33,0.35,0.33l2.57,0.02c0.1,0,0.19-0.04,0.26-0.11
						c0.07-0.07,0.1-0.16,0.1-0.26c-0.04-1.47-0.59-2.61-1.64-3.4c-1.02-0.77-2.26-1.16-3.7-1.17c-1.72-0.01-3.06,0.39-3.97,1.2
						c-0.92,0.82-1.4,1.87-1.41,3.12c-0.01,1.38,0.47,2.41,1.43,3.08c0.55,0.39,1.51,0.73,2.93,1.06l1.39,0.32
						c0.77,0.17,1.33,0.36,1.66,0.57c0.27,0.17,0.39,0.38,0.39,0.68c0,0.58-0.29,0.93-0.92,1.15c-0.36,0.12-0.86,0.18-1.46,0.18
						c-0.96-0.01-1.64-0.23-2.01-0.68c-0.2-0.24-0.33-0.62-0.4-1.14c-0.02-0.17-0.17-0.31-0.35-0.31l-2.56-0.02
						c-0.2,0-0.36,0.16-0.36,0.35c-0.01,1.44,0.52,2.6,1.56,3.43c1.02,0.82,2.43,1.24,4.19,1.25c1.73,0.01,3.1-0.4,4.08-1.22
						c0.99-0.83,1.5-1.9,1.5-3.18C199.35,101.13,198.92,100.15,198.08,99.47 M196.75,102.56c0-0.54-0.25-0.99-0.72-1.29
						c-0.41-0.25-1.03-0.47-1.88-0.66l-1.39-0.31c-1.31-0.3-2.21-0.62-2.68-0.95c-0.77-0.53-1.13-1.35-1.13-2.49
						c0.01-1.05,0.39-1.9,1.17-2.59c0.78-0.69,1.95-1.03,3.49-1.02c1.28,0.01,2.39,0.35,3.28,1.03c0.79,0.6,1.23,1.41,1.33,2.49
						l-1.88-0.01c-0.12-0.73-0.52-1.28-1.18-1.61c-0.47-0.24-1.06-0.37-1.75-0.37c-0.77-0.01-1.41,0.15-1.89,0.46
						c-0.53,0.34-0.8,0.83-0.8,1.46c0,0.59,0.27,1.05,0.79,1.34c0.3,0.17,0.88,0.36,1.79,0.58l2.25,0.55
						c0.93,0.23,1.63,0.52,2.07,0.88c0.68,0.54,1,1.31,0.99,2.35c-0.01,1.07-0.42,1.94-1.25,2.64c-0.84,0.71-2.06,1.06-3.61,1.05
						c-1.6-0.01-2.86-0.38-3.76-1.09c-0.8-0.64-1.22-1.46-1.29-2.52l1.89,0.01c0.1,0.51,0.27,0.9,0.51,1.19
						c0.51,0.61,1.36,0.93,2.55,0.94c0.68,0,1.25-0.07,1.69-0.22C196.27,104.06,196.75,103.44,196.75,102.56z"/>
					<path class="st4" d="M212.26,93.04l-10.38-0.07c-0.2,0-0.36,0.16-0.36,0.35l-0.02,2.27c0,0.2,0.16,0.36,0.35,0.36l3.5,0.02
						l-0.07,10.2c0,0.2,0.16,0.36,0.35,0.36l2.7,0.02c0.2,0,0.36-0.16,0.36-0.35l0.07-10.2l3.48,0.02c0.2,0,0.36-0.16,0.36-0.35
						l0.02-2.27C212.61,93.2,212.45,93.04,212.26,93.04 M205.71,95.27l-3.5-0.02l0.01-1.56l9.68,0.07l-0.01,1.56l-3.48-0.02
						c-0.2,0-0.36,0.16-0.36,0.35l-0.07,10.2l-1.99-0.01l0.07-10.2C206.06,95.43,205.9,95.27,205.71,95.27z"/>
				</g>
			</g>
		</g>
	</g>
	<g>
		<path class="st25" d="M11.97,37.45c0-0.3-0.26-0.56-0.56-0.56c-0.3,0-0.56,0.26-0.56,0.56c0.01,9.95-8.56,10.3-9.51,10.3l0,0l0,0
			c-0.13,0-0.26,0.04-0.35,0.13c-0.09,0.04-0.13,0.13-0.17,0.17c-0.09,0.17-0.09,0.39,0,0.56s0.3,0.3,0.52,0.3c0,0,0,0,0.04,0
			c0.99,0,9.52,0.34,9.52,10.29c0,0.3,0.26,0.56,0.56,0.56c0.3,0,0.56-0.26,0.56-0.56c-0.01-9.91,8.52-10.3,9.51-10.3l0,0l0,0
			c0.22,0,0.39-0.13,0.52-0.3c0.09-0.17,0.09-0.39-0.04-0.56c-0.09-0.17-0.3-0.26-0.48-0.3l0,0l0,0l0,0l0,0
			C20.54,47.74,11.97,47.4,11.97,37.45z"/>
		<path class="st25" d="M64.14,1.52c0-0.42-0.36-0.77-0.77-0.77c-0.42,0-0.77,0.36-0.77,0.77c0.01,13.65-11.74,14.13-13.05,14.13
			l0,0l0,0c-0.18,0-0.36,0.06-0.47,0.18c-0.12,0.06-0.18,0.18-0.24,0.24c-0.12,0.24-0.12,0.53,0,0.77c0.12,0.24,0.42,0.42,0.71,0.41
			c0,0,0,0,0.06,0c1.36,0,13.06,0.47,13.06,14.11c0,0.42,0.36,0.77,0.77,0.77c0.42,0,0.77-0.36,0.77-0.77
			C64.21,17.78,75.9,17.24,77.27,17.24l0,0l0,0c0.3,0,0.53-0.18,0.71-0.42c0.12-0.24,0.12-0.53-0.06-0.77
			c-0.12-0.24-0.42-0.36-0.65-0.41l0,0l0,0l0,0l0,0C75.9,15.64,64.15,15.17,64.14,1.52z"/>
		<path class="st25" d="M245.84,104.61c0-0.42-0.36-0.77-0.77-0.77c-0.42,0-0.77,0.36-0.77,0.77c0.01,13.65-11.74,14.13-13.05,14.13
			l0,0l0,0c-0.18,0-0.36,0.06-0.47,0.18c-0.12,0.06-0.18,0.18-0.24,0.24c-0.12,0.24-0.12,0.53,0,0.77c0.12,0.24,0.42,0.42,0.71,0.41
			c0,0,0,0,0.06,0c1.36,0,13.06,0.47,13.06,14.11c0,0.42,0.36,0.77,0.77,0.77c0.42,0,0.77-0.36,0.77-0.77
			c-0.01-13.59,11.68-14.13,13.05-14.13l0,0l0,0c0.3,0,0.53-0.18,0.71-0.42c0.12-0.24,0.12-0.53-0.06-0.77
			c-0.12-0.24-0.42-0.36-0.65-0.41l0,0l0,0l0,0l0,0C257.6,118.73,245.85,118.26,245.84,104.61z"/>
	</g>
	<g>
		<g>
			<g>
				<g>
					<g>
						<g>
							<path class="st5" d="M50.45,86.04c-18.26,0.43-32.78,15.64-32.35,33.92s15.63,32.8,33.9,32.37
								c18.26-0.43,32.78-15.64,32.35-33.92C83.92,100.13,68.72,85.61,50.45,86.04z"/>
						</g>
						<g>
							<path class="st19" d="M50.45,86.04c-18.26,0.43-32.78,15.64-32.35,33.92s15.63,32.8,33.9,32.37
								c18.26-0.43,32.78-15.64,32.35-33.92C83.92,100.13,68.72,85.61,50.45,86.04z"/>
						</g>
					</g>
					<g>
						<path class="st4" d="M40.11,101.67c-1.98,0.05-3.55,1.69-3.5,3.67c0.05,1.98,1.69,3.55,3.67,3.51
							c1.98-0.05,3.55-1.69,3.5-3.67C43.73,103.2,42.09,101.63,40.11,101.67z"/>
						<path class="st4" d="M61.51,101.17c-1.98,0.05-3.55,1.69-3.5,3.67c0.05,1.98,1.69,3.55,3.67,3.51s3.55-1.69,3.5-3.67
							C65.14,102.7,63.49,101.13,61.51,101.17z"/>
						<path class="st4" d="M51.43,127.98c6.12-0.14,10.99-5.2,10.93-11.3l-2.22,0.05c0.03,4.88-3.87,8.92-8.76,9.03
							c-4.9,0.11-8.98-3.74-9.17-8.61l-2.22,0.05C40.21,123.3,45.31,128.12,51.43,127.98z"/>
					</g>
				</g>
			</g>
		</g>
	</g>
</g>
</svg>
